<svg id="Capa_1" data-name="Capa 1" xmlns="http://www.w3.org/2000/svg" viewBox="0 0 268.89 302.37"><defs><style>.cls-1{fill:#98ca3f;}</style></defs><title>platzi</title><path class="cls-1" d="M140,17.47,35,120.13a47.94,47.94,0,0,0-.77,67.79L135.73,291.76a48,48,0,0,0,67.79.77L238.84,258,205.2,223.84l-34.44,33.67-33.67-34.45-.49-.5-67.27-68.8L172.94,52.47l67.76,69.31-69.17,67.61,33.67,34.45L275,155.59a48,48,0,0,0,.77-67.79l-68-69.56A48,48,0,0,0,140,17.47Z" transform="translate(-20.56 -3.81)"/></svg>